<svg width="30" height="30" viewBox="0 0 30 30" fill="none" xmlns="http://www.w3.org/2000/svg">
<path fill-rule="evenodd" clip-rule="evenodd" d="M15 2.5C15.775 2.52125 16.585 3.17875 17.1163 3.68375C17.8599 4.38085 18.3805 5.28248 18.6125 6.275C19.4791 5.737 20.4856 5.46776 21.505 5.50125C22.2375 5.52 23.275 5.62875 23.8375 6.16125C24.37 6.72375 24.4775 7.76125 24.4963 8.49375C24.5301 9.51306 24.2613 10.5196 23.7238 11.3863C24.8825 11.6538 25.7362 12.2738 26.315 12.8837C26.82 13.415 27.4775 14.225 27.4988 15C27.4775 15.775 26.82 16.585 26.315 17.1163C25.6181 17.8603 24.7164 18.3814 23.7238 18.6138C24.2611 19.4806 24.5302 20.4869 24.4975 21.5063C24.4788 22.2388 24.37 23.2762 23.8375 23.8387C23.275 24.3712 22.2375 24.4788 21.505 24.4975C20.4857 24.5314 19.4792 24.2626 18.6125 23.725C18.3801 24.7177 17.8591 25.6193 17.115 26.3162C16.5838 26.8212 15.7725 27.4788 14.9987 27.5C14.2237 27.4788 13.4137 26.8212 12.8825 26.3162C12.1393 25.619 11.6192 24.7174 11.3875 23.725C10.5209 24.263 9.51443 24.5322 8.495 24.4988C7.7625 24.48 6.725 24.3712 6.1625 23.8387C5.63 23.2762 5.5225 22.2388 5.50375 21.5063C5.46989 20.4869 5.73869 19.4804 6.27625 18.6138C5.28358 18.3814 4.38194 17.8603 3.685 17.1163C3.17875 16.585 2.52125 15.775 2.5 15C2.52125 14.225 3.17875 13.415 3.68375 12.8837C4.38085 12.1401 5.28248 11.6195 6.275 11.3875C5.737 10.5209 5.46776 9.51443 5.50125 8.495C5.52 7.7625 5.62875 6.725 6.16125 6.1625C6.72375 5.63 7.76125 5.52125 8.49375 5.50375C9.51306 5.46989 10.5196 5.73869 11.3863 6.27625C11.6538 5.1175 12.2738 4.26375 12.8837 3.685C13.4163 3.18 14.225 2.52125 15 2.5ZM15.625 19.9625C15.215 20.0125 14.785 20.0125 14.375 19.9625C14.0275 20.7625 13.75 21.5712 13.75 22.5012C13.75 23.7537 14.4738 24.46 15 24.8263C15.5262 24.46 16.25 23.7537 16.25 22.5012C16.25 21.5712 15.9725 20.7625 15.625 19.9625ZM11.05 18.0675C10.2387 18.3875 9.47 18.7638 8.8125 19.4212C7.9275 20.3062 7.93875 21.3175 8.05375 21.9475C8.68375 22.0613 9.695 22.0737 10.58 21.1888C11.2375 20.5312 11.6137 19.7625 11.9338 18.9513C11.6034 18.6948 11.3065 18.3979 11.05 18.0675ZM18.95 18.0675C18.6935 18.3979 18.3966 18.6948 18.0662 18.9513C18.3863 19.7625 18.7625 20.5312 19.42 21.1888C20.305 22.0737 21.3162 22.0613 21.9462 21.9475C22.06 21.3175 22.0725 20.3062 21.1875 19.4212C20.53 18.7638 19.7612 18.3875 18.95 18.0675ZM15 12.5C14.337 12.5 13.7011 12.7634 13.2322 13.2322C12.7634 13.7011 12.5 14.337 12.5 15C12.5 15.663 12.7634 16.2989 13.2322 16.7678C13.7011 17.2366 14.337 17.5 15 17.5C15.663 17.5 16.2989 17.2366 16.7678 16.7678C17.2366 16.2989 17.5 15.663 17.5 15C17.5 14.337 17.2366 13.7011 16.7678 13.2322C16.2989 12.7634 15.663 12.5 15 12.5ZM7.5 13.75C6.2475 13.75 5.54125 14.4738 5.175 15C5.54125 15.5262 6.2475 16.25 7.5 16.25C8.43 16.25 9.23875 15.9725 10.0388 15.625C9.98646 15.21 9.98646 14.79 10.0388 14.375C9.23875 14.0275 8.43 13.75 7.5 13.75ZM22.5 13.75C21.57 13.75 20.7612 14.0275 19.9613 14.375C20.0112 14.785 20.0112 15.215 19.9613 15.625C20.7612 15.9725 21.57 16.25 22.5 16.25C23.7525 16.25 24.4588 15.5262 24.825 15C24.4588 14.4738 23.7525 13.75 22.5 13.75ZM10.58 8.8125C9.695 7.9275 8.68375 7.93875 8.05375 8.05375C7.93875 8.68375 7.9275 9.695 8.8125 10.58C9.47 11.2375 10.2387 11.6137 11.05 11.9338C11.3065 11.6034 11.6034 11.3065 11.9338 11.05C11.6137 10.2387 11.2375 9.47 10.58 8.8125ZM21.9462 8.05375C21.3162 7.93875 20.305 7.9275 19.42 8.8125C18.7625 9.47 18.3863 10.2387 18.0662 11.05C18.3979 11.3083 18.6925 11.6029 18.95 11.9338C19.7612 11.6137 20.53 11.2375 21.1875 10.58C22.0725 9.695 22.06 8.68375 21.9462 8.05375ZM15 5.175C14.4738 5.54 13.75 6.24625 13.75 7.49875C13.75 8.42875 14.0275 9.2375 14.375 10.0375C14.785 9.9875 15.215 9.9875 15.625 10.0375C15.9725 9.2375 16.25 8.42875 16.25 7.49875C16.25 6.24625 15.5262 5.54125 15 5.175Z" fill="#2E3155"/>
</svg>