<svg width="24" height="12" viewBox="0 0 24 12" fill="none" xmlns="http://www.w3.org/2000/svg">
<g clip-path="url(#clip0_11_44)">
<path d="M3.71 2.67588H18.924C20.302 2.67588 21.297 3.30521 20.919 3.9385L19.265 6.71348C19.01 7.13964 18.196 7.433 17.27 7.433H8.112C7.185 7.433 6.37 7.13915 6.116 6.71348L3.71 2.67588ZM3.71 2.67588L3 1.4866M16.5 10.4062C16.8978 10.4062 17.2794 10.3279 17.5607 10.1885C17.842 10.0491 18 9.86003 18 9.6629C18 9.46576 17.842 9.2767 17.5607 9.1373C17.2794 8.99791 16.8978 8.9196 16.5 8.9196C16.1022 8.9196 15.7206 8.99791 15.4393 9.1373C15.158 9.2767 15 9.46576 15 9.6629C15 9.86003 15.158 10.0491 15.4393 10.1885C15.7206 10.3279 16.1022 10.4062 16.5 10.4062ZM8.5 10.4062C8.89782 10.4062 9.27936 10.3279 9.56066 10.1885C9.84196 10.0491 10 9.86003 10 9.6629C10 9.46576 9.84196 9.2767 9.56066 9.1373C9.27936 8.99791 8.89782 8.9196 8.5 8.9196C8.10218 8.9196 7.72064 8.99791 7.43934 9.1373C7.15804 9.2767 7 9.46576 7 9.6629C7 9.86003 7.15804 10.0491 7.43934 10.1885C7.72064 10.3279 8.10218 10.4062 8.5 10.4062Z" stroke="black" stroke-width="2" stroke-linecap="round" stroke-linejoin="round"/>
</g>
<defs>
<clipPath id="clip0_11_44">
<rect width="24" height="11.8928" fill="white"/>
</clipPath>
</defs>
</svg>
