<svg width="200" height="59" viewBox="0 0 200 59" fill="none" xmlns="http://www.w3.org/2000/svg">
<path d="M25.9609 20.3828H0.765625V17.5703H25.9609V20.3828ZM20.9219 30.6719C20.9219 26.9219 19.1484 25.0469 15.6016 25.0469C12.9766 25.0469 10.7812 26.4219 9.01562 29.1719C7.45312 31.6094 6.67188 34.2031 6.67188 36.9531V43.7734L2.82812 41.7578V24.1328H6.85938V26.9219L8.94531 25.3516C10.7891 23.9609 12.7344 23.2656 14.7812 23.2656C17.5625 23.2656 19.8672 24.3438 21.6953 26.5C23.4141 28.5312 24.2734 30.9609 24.2734 33.7891C24.2734 37.3359 22.7734 40.7422 19.7734 44.0078L15.25 41.1719C16.6562 39.7812 17.8516 38.5 18.8359 37.3281C20.2266 35.6719 20.9219 33.4531 20.9219 30.6719ZM48.5078 20.3828H32.8984V24.1328C32.9609 24.1328 33.0234 24.1641 33.0859 24.2266C33.1484 24.2891 33.2031 24.3203 33.25 24.3203C33.125 24.3203 33.0547 24.3125 33.0391 24.2969C33.0391 24.2188 34.2031 23.9688 36.5312 23.5469C37.3906 23.3906 38.2422 23.3125 39.0859 23.3125C42.6016 23.3125 44.8594 24.2969 45.8594 26.2656C46.5312 27.5781 46.8672 30.2266 46.8672 34.2109V43.2344C46.5391 43.1094 45.2969 42.6016 43.1406 41.7109C43.1406 41.2109 43.0391 40.8906 42.8359 40.75C42.0078 41.2344 41.3281 41.6016 40.7969 41.8516C39.1094 42.6484 37.1484 43.0469 34.9141 43.0469C31.8359 43.0469 29.4609 42.0781 27.7891 40.1406C26.9766 39.2031 26.5703 38.1562 26.5703 37C26.5703 35.7031 27.2109 34.4141 28.4922 33.1328C30.9766 30.6484 34.0625 29.4062 37.75 29.4062C39.9844 29.4062 41.7812 29.9219 43.1406 30.9531V28.7969C42.4531 27.9219 41.7812 27.3359 41.125 27.0391C40.4844 26.7422 39.6016 26.6094 38.4766 26.6406C35.9609 26.6875 33.6562 27.1484 31.5625 28.0234C30.625 28.4141 29.7109 28.7656 28.8203 29.0781V27.3438C29.0234 27.1719 29.3203 26.9141 29.7109 26.5703C29.7734 26.4922 29.8125 26.4453 29.8281 26.4297V20.3828H25.0234V17.5703H48.5078V20.3828ZM43.1406 35.2188C43.1406 34.5312 42.3203 33.9141 40.6797 33.3672C39.3203 32.9141 38.1875 32.6875 37.2812 32.6875C33.9844 32.6875 31.3438 33.875 29.3594 36.25C28.5625 37.2031 28.1641 37.9844 28.1641 38.5938C28.4922 39.7344 29.7812 40.3047 32.0312 40.3047C34.9375 40.3047 37.5938 39.5781 40 38.125C42.0938 36.8594 43.1406 35.8906 43.1406 35.2188ZM77.5234 17.5703L77.4766 20.3828H75.0859V24.8594C74.8047 25.4219 74.1484 26.6094 73.1172 28.4219L64.7969 43.0469C63.4062 43.0469 61.5859 41.9453 59.3359 39.7422C56.8672 37.3359 55.6328 34.6641 55.6328 31.7266C55.6328 30.2266 56.1172 28.8281 57.0859 27.5312C57.5234 26.9375 57.7422 26.4922 57.7422 26.1953C57.7422 25.6484 57.2812 25.375 56.3594 25.375C55.6719 25.375 55.0078 25.6562 54.3672 26.2188C54.1328 26.4219 53.625 26.9766 52.8438 27.8828L49.8203 25.1406C50.8516 24.2656 51.8594 23.7266 52.8438 23.5234C53.3281 23.4141 53.9531 23.3594 54.7188 23.3594C58.9531 23.3125 61.0703 25.5703 61.0703 30.1328C61.0703 30.7422 61 31.6562 60.8594 32.875C60.7344 34.0938 60.6719 35.0078 60.6719 35.6172C60.6719 38.0859 61.1094 39.4297 61.9844 39.6484C62.4688 39.6484 63.0391 39.0547 63.6953 37.8672L70.8438 24.9531V20.3828H48.0625V17.5703H77.5234ZM101.195 20.3828H85.5859V24.1328C85.6484 24.1328 85.7109 24.1641 85.7734 24.2266C85.8359 24.2891 85.8906 24.3203 85.9375 24.3203C85.8125 24.3203 85.7422 24.3125 85.7266 24.2969C85.7266 24.2188 86.8906 23.9688 89.2188 23.5469C90.0781 23.3906 90.9297 23.3125 91.7734 23.3125C95.2891 23.3125 97.5469 24.2969 98.5469 26.2656C99.2188 27.5781 99.5547 30.2266 99.5547 34.2109V43.2344C99.2266 43.1094 97.9844 42.6016 95.8281 41.7109C95.8281 41.2109 95.7266 40.8906 95.5234 40.75C94.6953 41.2344 94.0156 41.6016 93.4844 41.8516C91.7969 42.6484 89.8359 43.0469 87.6016 43.0469C84.5234 43.0469 82.1484 42.0781 80.4766 40.1406C79.6641 39.2031 79.2578 38.1562 79.2578 37C79.2578 35.7031 79.8984 34.4141 81.1797 33.1328C83.6641 30.6484 86.75 29.4062 90.4375 29.4062C92.6719 29.4062 94.4688 29.9219 95.8281 30.9531V28.7969C95.1406 27.9219 94.4688 27.3359 93.8125 27.0391C93.1719 26.7422 92.2891 26.6094 91.1641 26.6406C88.6484 26.6875 86.3438 27.1484 84.25 28.0234C83.3125 28.4141 82.3984 28.7656 81.5078 29.0781V27.3438C81.7109 27.1719 82.0078 26.9141 82.3984 26.5703C82.4609 26.4922 82.5 26.4453 82.5156 26.4297V20.3828H77.7109V17.5703H101.195V20.3828ZM95.8281 35.2188C95.8281 34.5312 95.0078 33.9141 93.3672 33.3672C92.0078 32.9141 90.875 32.6875 89.9688 32.6875C86.6719 32.6875 84.0312 33.875 82.0469 36.25C81.25 37.2031 80.8516 37.9844 80.8516 38.5938C81.1797 39.7344 82.4688 40.3047 84.7188 40.3047C87.625 40.3047 90.2812 39.5781 92.6875 38.125C94.7812 36.8594 95.8281 35.8906 95.8281 35.2188ZM124.586 20.3828H100.891V17.5703H124.586V20.3828ZM122.641 28.7969C122.641 29.7188 122.086 30.7578 120.977 31.9141C120.039 32.8984 119.055 33.6328 118.023 34.1172L114.508 30.1328C115.57 30.0391 116.578 29.6484 117.531 28.9609C118.625 28.1797 119.172 27.2891 119.172 26.2891C119.172 25.7578 118.828 25.3047 118.141 24.9297C117.547 24.5859 116.961 24.4141 116.383 24.4141C115.18 24.4141 113.891 24.9922 112.516 26.1484C109.719 28.4922 108.32 31.0859 108.32 33.9297V43.8672L103.82 41.5234V24.1797H108.367V25.9609C109.039 25.2891 110.43 24.5859 112.539 23.8516C113.57 23.4922 114.633 23.3125 115.727 23.3125C117.992 23.3125 119.914 24.1797 121.492 25.9141C122.258 26.7578 122.641 27.7188 122.641 28.7969ZM150.438 20.3828H130.82V35.4062C130.82 36.4062 131.031 37.4375 131.453 38.5C132.312 40.6719 133.734 41.7578 135.719 41.7578C138.391 41.7578 140.422 40.6406 141.812 38.4062C142.891 36.6875 143.43 35.0703 143.43 33.5547V24.2266H148.188V44.1953C147.812 43.9766 147.109 43.6406 146.078 43.1875L143.383 41.9922V40.1172C141.539 41.4609 139.961 42.3125 138.648 42.6719C137.852 42.8906 136.906 43 135.812 43C132.344 43 129.633 41.4766 127.68 38.4297C126.789 37.0391 126.344 35.5234 126.344 33.8828V20.3828H123.508V17.5703H150.438V20.3828ZM176.852 20.3828H149.969V17.5703H176.852V20.3828ZM174.977 33.3438C174.977 35.0625 174.461 36.6875 173.43 38.2188C172.477 39.6406 171.219 40.8047 169.656 41.7109C168.094 42.6016 166.648 43.0469 165.32 43.0469C164.023 43.0469 162.406 42.3203 160.469 40.8672C159.531 40.1641 158.156 38.9531 156.344 37.2344V57.1094L152.594 55.1406V24.1328H156.25V29.8516L157.68 28.3516C160.977 24.8984 163.648 23.1719 165.695 23.1719C167.914 23.1719 170.031 24.3203 172.047 26.6172C174 28.8516 174.977 31.0938 174.977 33.3438ZM172.656 30.625C172.656 29.4375 172.039 28.2969 170.805 27.2031C170.195 26.6562 169.422 26.3828 168.484 26.3828C166.641 26.3828 164.352 27.5 161.617 29.7344C158.805 32.0312 157.398 34.0703 157.398 35.8516C157.398 36.8984 158.375 37.8203 160.328 38.6172C161.203 38.9766 162.055 39.1562 162.883 39.1562C165.602 39.1562 167.961 38.1094 169.961 36.0156C171.758 34.1406 172.656 32.3438 172.656 30.625ZM199.305 20.3828H183.695V24.1328C183.758 24.1328 183.82 24.1641 183.883 24.2266C183.945 24.2891 184 24.3203 184.047 24.3203C183.922 24.3203 183.852 24.3125 183.836 24.2969C183.836 24.2188 185 23.9688 187.328 23.5469C188.188 23.3906 189.039 23.3125 189.883 23.3125C193.398 23.3125 195.656 24.2969 196.656 26.2656C197.328 27.5781 197.664 30.2266 197.664 34.2109V43.2344C197.336 43.1094 196.094 42.6016 193.938 41.7109C193.938 41.2109 193.836 40.8906 193.633 40.75C192.805 41.2344 192.125 41.6016 191.594 41.8516C189.906 42.6484 187.945 43.0469 185.711 43.0469C182.633 43.0469 180.258 42.0781 178.586 40.1406C177.773 39.2031 177.367 38.1562 177.367 37C177.367 35.7031 178.008 34.4141 179.289 33.1328C181.773 30.6484 184.859 29.4062 188.547 29.4062C190.781 29.4062 192.578 29.9219 193.938 30.9531V28.7969C193.25 27.9219 192.578 27.3359 191.922 27.0391C191.281 26.7422 190.398 26.6094 189.273 26.6406C186.758 26.6875 184.453 27.1484 182.359 28.0234C181.422 28.4141 180.508 28.7656 179.617 29.0781V27.3438C179.82 27.1719 180.117 26.9141 180.508 26.5703C180.57 26.4922 180.609 26.4453 180.625 26.4297V20.3828H175.82V17.5703H199.305V20.3828ZM193.938 35.2188C193.938 34.5312 193.117 33.9141 191.477 33.3672C190.117 32.9141 188.984 32.6875 188.078 32.6875C184.781 32.6875 182.141 33.875 180.156 36.25C179.359 37.2031 178.961 37.9844 178.961 38.5938C179.289 39.7344 180.578 40.3047 182.828 40.3047C185.734 40.3047 188.391 39.5781 190.797 38.125C192.891 36.8594 193.938 35.8906 193.938 35.2188Z" fill="#2E3155"/>
</svg>